# xmcd
#
# Track frame offsets:
# 150
# 23438
# 50683
# 77603
# 103578
# 139695
# 158124
# 169859
# 209147
#
# Disc length: 3078 seconds
#
#
# Revision: 0
# Processed by: cddbd v1.5.2PL0 Copyright (c) Steve Scherf et al.
# Submitted via: Nero 7, 11, 10, 0 
#
DISCID=720c0409
DTITLE=Tom Townsley - Blue Roller
DYEAR=2003
DGENRE=Blues
TTITLE0=Scufflin'
TTITLE1=Cold Duck Time
TTITLE2=Canteloupe Woman
TTITLE3=Blue Roller
TTITLE4=Ain't It Funky Now
TTITLE5=Surgery
TTITLE6=Archie
TTITLE7=Bar Rat
TTITLE8=Waiting On You
EXTD=
EXTT0=Scufflin'
EXTT1=Cold Duck Time
EXTT2=Canteloupe Woman
EXTT3=Blue Roller
EXTT4=Ain't It Funky Now
EXTT5=Surgery
EXTT6=Archie
EXTT7=Bar Rat
EXTT8=Waiting On You
PLAYORDER=
